<?xml version="1.0" encoding="UTF-8" standalone="no"?>
<!DOCTYPE svg PUBLIC "-//W3C//DTD SVG 1.1//EN"
 "http://www.w3.org/Graphics/SVG/1.1/DTD/svg11.dtd">
<!-- Generated by graphviz version 2.43.0 (0)
 -->
<!-- Title: G Pages: 1 -->
<svg width="2087pt" height="1030pt"
 viewBox="0.00 0.00 2087.00 1030.00" xmlns="http://www.w3.org/2000/svg" xmlns:xlink="http://www.w3.org/1999/xlink">
<g id="graph0" class="graph" transform="scale(1 1) rotate(0) translate(4 1026)">
<title>G</title>
<polygon fill="white" stroke="transparent" points="-4,4 -4,-1026 2083,-1026 2083,4 -4,4"/>
<!-- 15 -->
<g id="node1" class="node">
<title>15</title>
<polygon fill="lightblue" stroke="black" points="128,-98 0,-98 0,-62 128,-62 128,-98"/>
<text text-anchor="middle" x="64" y="-76.3" font-family="Times,serif" font-size="14.00">Sucursal Solola (15)</text>
</g>
<!-- 13 -->
<g id="node3" class="node">
<title>13</title>
<polygon fill="lightblue" stroke="black" points="383,-187 225,-187 225,-151 383,-151 383,-187"/>
<text text-anchor="middle" x="304" y="-165.3" font-family="Times,serif" font-size="14.00">Sucursal San Marcos (13)</text>
</g>
<!-- 15&#45;&gt;13 -->
<g id="edge1" class="edge">
<title>15&#45;&gt;13</title>
<path fill="none" stroke="black" d="M105.13,-98.06C118.08,-103.7 132.57,-109.8 146,-115 175.69,-126.5 209,-138.13 237.26,-147.64"/>
<polygon fill="black" stroke="black" points="236.45,-151.06 247.04,-150.91 238.67,-144.42 236.45,-151.06"/>
<text text-anchor="middle" x="176.5" y="-139.8" font-family="Times,serif" font-size="14.00">t=70, c=28</text>
</g>
<!-- 3 -->
<g id="node13" class="node">
<title>3</title>
<polygon fill="lightblue" stroke="black" points="1595,-285 1478,-285 1478,-249 1595,-249 1595,-285"/>
<text text-anchor="middle" x="1536.5" y="-263.3" font-family="Times,serif" font-size="14.00">Sucursal Norte (3)</text>
</g>
<!-- 15&#45;&gt;3 -->
<g id="edge2" class="edge">
<title>15&#45;&gt;3</title>
<path fill="none" stroke="black" d="M128.13,-68.08C175.95,-60.08 243.37,-51 303,-51 303,-51 303,-51 888,-51 1148.67,-51 1228.17,-72.56 1455,-201 1474.82,-212.22 1494.64,-228.39 1509.65,-241.92"/>
<polygon fill="black" stroke="black" points="1507.3,-244.52 1517.03,-248.71 1512.04,-239.36 1507.3,-244.52"/>
<text text-anchor="middle" x="772" y="-54.8" font-family="Times,serif" font-size="14.00">t=50, c=20</text>
</g>
<!-- 14 -->
<g id="node2" class="node">
<title>14</title>
<polygon fill="lightblue" stroke="black" points="1600,-908 1473,-908 1473,-872 1600,-872 1600,-908"/>
<text text-anchor="middle" x="1536.5" y="-886.3" font-family="Times,serif" font-size="14.00">Sucursal Jalapa (14)</text>
</g>
<!-- 12 -->
<g id="node4" class="node">
<title>12</title>
<polygon fill="lightblue" stroke="black" points="1855,-928 1697,-928 1697,-892 1855,-892 1855,-928"/>
<text text-anchor="middle" x="1776" y="-906.3" font-family="Times,serif" font-size="14.00">Sucursal Chiquimula (12)</text>
</g>
<!-- 14&#45;&gt;12 -->
<g id="edge3" class="edge">
<title>14&#45;&gt;12</title>
<path fill="none" stroke="black" d="M1600.13,-905.32C1606.14,-906.39 1612.17,-907.32 1618,-908 1640.19,-910.59 1664.26,-911.73 1686.73,-912.08"/>
<polygon fill="black" stroke="black" points="1686.9,-915.58 1696.93,-912.19 1686.97,-908.58 1686.9,-915.58"/>
<text text-anchor="middle" x="1648.5" y="-914.8" font-family="Times,serif" font-size="14.00">t=80, c=32</text>
</g>
<!-- 11 -->
<g id="node5" class="node">
<title>11</title>
<polygon fill="lightblue" stroke="black" points="1350,-805 1219,-805 1219,-769 1350,-769 1350,-805"/>
<text text-anchor="middle" x="1284.5" y="-783.3" font-family="Times,serif" font-size="14.00">Sucursal Jutiapa (11)</text>
</g>
<!-- 14&#45;&gt;11 -->
<g id="edge4" class="edge">
<title>14&#45;&gt;11</title>
<path fill="none" stroke="black" d="M1498.96,-871.85C1485.3,-865.3 1469.56,-858.04 1455,-852 1422.28,-838.42 1413.11,-837.61 1380,-825 1366.7,-819.93 1352.43,-814.3 1339.1,-808.95"/>
<polygon fill="black" stroke="black" points="1340.18,-805.61 1329.6,-805.12 1337.57,-812.11 1340.18,-805.61"/>
<text text-anchor="middle" x="1417.5" y="-855.8" font-family="Times,serif" font-size="14.00">t=60, c=24</text>
</g>
<!-- 5 -->
<g id="node11" class="node">
<title>5</title>
<polygon fill="lightblue" stroke="black" points="2079,-893 1952,-893 1952,-857 2079,-857 2079,-893"/>
<text text-anchor="middle" x="2015.5" y="-871.3" font-family="Times,serif" font-size="14.00">Sucursal Oriente (5)</text>
</g>
<!-- 14&#45;&gt;5 -->
<g id="edge5" class="edge">
<title>14&#45;&gt;5</title>
<path fill="none" stroke="black" d="M1567.38,-908.19C1582.1,-916.27 1600.43,-925.05 1618,-930 1753.18,-968.11 1801.47,-979.5 1934,-933 1954.16,-925.93 1973.68,-912.09 1988.45,-899.71"/>
<polygon fill="black" stroke="black" points="1990.89,-902.23 1996.14,-893.03 1986.3,-896.94 1990.89,-902.23"/>
<text text-anchor="middle" x="1776" y="-966.8" font-family="Times,serif" font-size="14.00">t=70, c=28</text>
</g>
<!-- 13&#45;&gt;15 -->
<g id="edge6" class="edge">
<title>13&#45;&gt;15</title>
<path fill="none" stroke="black" d="M285.41,-150.83C267.45,-133.55 237.9,-108.38 207,-96 185.63,-87.44 161.1,-82.98 138.5,-80.78"/>
<polygon fill="black" stroke="black" points="138.53,-77.27 128.27,-79.92 137.95,-84.24 138.53,-77.27"/>
<text text-anchor="middle" x="176.5" y="-99.8" font-family="Times,serif" font-size="14.00">t=70, c=28</text>
</g>
<!-- 6 -->
<g id="node10" class="node">
<title>6</title>
<polygon fill="lightblue" stroke="black" points="1846.5,-168 1705.5,-168 1705.5,-132 1846.5,-132 1846.5,-168"/>
<text text-anchor="middle" x="1776" y="-146.3" font-family="Times,serif" font-size="14.00">Sucursal Occidente (6)</text>
</g>
<!-- 13&#45;&gt;6 -->
<g id="edge7" class="edge">
<title>13&#45;&gt;6</title>
<path fill="none" stroke="black" d="M383.12,-158.93C431.52,-153.54 495.02,-148 551.5,-148 551.5,-148 551.5,-148 888,-148 1185.68,-148 1539.56,-149.14 1695.03,-149.7"/>
<polygon fill="black" stroke="black" points="1695.41,-153.2 1705.43,-149.74 1695.44,-146.2 1695.41,-153.2"/>
<text text-anchor="middle" x="1021" y="-151.8" font-family="Times,serif" font-size="14.00">t=120, c=50</text>
</g>
<!-- 13&#45;&gt;3 -->
<g id="edge8" class="edge">
<title>13&#45;&gt;3</title>
<path fill="none" stroke="black" d="M347.89,-187.19C364.27,-193.57 383.27,-200.31 401,-205 466.48,-222.31 483.77,-229 551.5,-229 551.5,-229 551.5,-229 1285.5,-229 1347.72,-229 1417.68,-240.65 1467.73,-251.05"/>
<polygon fill="black" stroke="black" points="1467.28,-254.53 1477.78,-253.17 1468.73,-247.68 1467.28,-254.53"/>
<text text-anchor="middle" x="887" y="-232.8" font-family="Times,serif" font-size="14.00">t=90, c=35</text>
</g>
<!-- 2 -->
<g id="node14" class="node">
<title>2</title>
<polygon fill="lightblue" stroke="black" points="618,-331 487,-331 487,-295 618,-295 618,-331"/>
<text text-anchor="middle" x="552.5" y="-309.3" font-family="Times,serif" font-size="14.00">Sucursal Zona 10 (2)</text>
</g>
<!-- 13&#45;&gt;2 -->
<g id="edge9" class="edge">
<title>13&#45;&gt;2</title>
<path fill="none" stroke="black" d="M325.26,-187.08C343.98,-203.17 373.04,-226.62 401,-243 429.35,-259.61 439.16,-258.24 469,-272 481.5,-277.77 494.92,-284.29 507.23,-290.41"/>
<polygon fill="black" stroke="black" points="505.88,-293.65 516.39,-294.99 509.01,-287.39 505.88,-293.65"/>
<text text-anchor="middle" x="435" y="-275.8" font-family="Times,serif" font-size="14.00">t=200, c=80</text>
</g>
<!-- 12&#45;&gt;14 -->
<g id="edge10" class="edge">
<title>12&#45;&gt;14</title>
<path fill="none" stroke="black" d="M1700.05,-891.99C1692.97,-890.78 1685.87,-889.74 1679,-889 1652.05,-886.09 1645.11,-888.83 1618,-889 1615.49,-889.02 1612.94,-889.03 1610.37,-889.05"/>
<polygon fill="black" stroke="black" points="1610.31,-885.55 1600.34,-889.14 1610.37,-892.55 1610.31,-885.55"/>
<text text-anchor="middle" x="1648.5" y="-892.8" font-family="Times,serif" font-size="14.00">t=80, c=32</text>
</g>
<!-- 12&#45;&gt;5 -->
<g id="edge11" class="edge">
<title>12&#45;&gt;5</title>
<path fill="none" stroke="black" d="M1855.08,-914.75C1880.46,-914.78 1908.62,-913.17 1934,-908 1945.68,-905.62 1957.8,-901.58 1968.99,-897.12"/>
<polygon fill="black" stroke="black" points="1970.67,-900.21 1978.54,-893.12 1967.97,-893.75 1970.67,-900.21"/>
<text text-anchor="middle" x="1903.5" y="-917.8" font-family="Times,serif" font-size="14.00">t=60, c=25</text>
</g>
<!-- 11&#45;&gt;14 -->
<g id="edge12" class="edge">
<title>11&#45;&gt;14</title>
<path fill="none" stroke="black" d="M1301.21,-805.29C1318.49,-824.08 1348.07,-852.56 1380,-867 1405.58,-878.57 1435.7,-884.55 1462.6,-887.57"/>
<polygon fill="black" stroke="black" points="1462.43,-891.07 1472.73,-888.59 1463.13,-884.11 1462.43,-891.07"/>
<text text-anchor="middle" x="1417.5" y="-889.8" font-family="Times,serif" font-size="14.00">t=60, c=24</text>
</g>
<!-- 8 -->
<g id="node8" class="node">
<title>8</title>
<polygon fill="lightblue" stroke="black" points="1091,-718 951,-718 951,-682 1091,-682 1091,-718"/>
<text text-anchor="middle" x="1021" y="-696.3" font-family="Times,serif" font-size="14.00">Sucursal Costa Sur (8)</text>
</g>
<!-- 11&#45;&gt;8 -->
<g id="edge13" class="edge">
<title>11&#45;&gt;8</title>
<path fill="none" stroke="black" d="M1239.55,-768.92C1223.72,-762.65 1205.66,-755.74 1189,-750 1158.92,-739.63 1125.39,-729.35 1096.31,-720.83"/>
<polygon fill="black" stroke="black" points="1097.21,-717.44 1086.63,-718.01 1095.25,-724.16 1097.21,-717.44"/>
<text text-anchor="middle" x="1155" y="-753.8" font-family="Times,serif" font-size="14.00">t=110, c=45</text>
</g>
<!-- 11&#45;&gt;5 -->
<g id="edge14" class="edge">
<title>11&#45;&gt;5</title>
<path fill="none" stroke="black" d="M1350.05,-795.31C1360.07,-796.57 1370.31,-797.83 1380,-799 1626.03,-828.61 1688.5,-828.24 1934,-862 1936.52,-862.35 1939.07,-862.71 1941.66,-863.08"/>
<polygon fill="black" stroke="black" points="1941.3,-866.56 1951.7,-864.57 1942.32,-859.64 1941.3,-866.56"/>
<text text-anchor="middle" x="1648.5" y="-834.8" font-family="Times,serif" font-size="14.00">t=90, c=35</text>
</g>
<!-- 4 -->
<g id="node12" class="node">
<title>4</title>
<polygon fill="lightblue" stroke="black" points="1589,-693 1484,-693 1484,-657 1589,-657 1589,-693"/>
<text text-anchor="middle" x="1536.5" y="-671.3" font-family="Times,serif" font-size="14.00">Sucursal Sur (4)</text>
</g>
<!-- 11&#45;&gt;4 -->
<g id="edge15" class="edge">
<title>11&#45;&gt;4</title>
<path fill="none" stroke="black" d="M1346.35,-768.96C1393.91,-754.82 1452.41,-737.31 1455,-736 1473.99,-726.34 1493.09,-712.11 1507.91,-699.83"/>
<polygon fill="black" stroke="black" points="1510.32,-702.38 1515.68,-693.24 1505.79,-697.04 1510.32,-702.38"/>
<text text-anchor="middle" x="1417.5" y="-760.8" font-family="Times,serif" font-size="14.00">t=100, c=40</text>
</g>
<!-- 10 -->
<g id="node6" class="node">
<title>10</title>
<polygon fill="lightblue" stroke="black" points="1103,-440 939,-440 939,-404 1103,-404 1103,-440"/>
<text text-anchor="middle" x="1021" y="-418.3" font-family="Times,serif" font-size="14.00">Sucursal Baja Verapaz (10)</text>
</g>
<!-- 9 -->
<g id="node7" class="node">
<title>9</title>
<polygon fill="lightblue" stroke="black" points="1362,-437 1207,-437 1207,-401 1362,-401 1362,-437"/>
<text text-anchor="middle" x="1284.5" y="-415.3" font-family="Times,serif" font-size="14.00">Sucursal Alta Verapaz (9)</text>
</g>
<!-- 10&#45;&gt;9 -->
<g id="edge17" class="edge">
<title>10&#45;&gt;9</title>
<path fill="none" stroke="black" d="M1103.31,-421.07C1132.94,-420.73 1166.55,-420.34 1196.65,-420"/>
<polygon fill="black" stroke="black" points="1196.75,-423.5 1206.71,-419.88 1196.67,-416.5 1196.75,-423.5"/>
<text text-anchor="middle" x="1155" y="-423.8" font-family="Times,serif" font-size="14.00">t=80, c=32</text>
</g>
<!-- 1 -->
<g id="node15" class="node">
<title>1</title>
<polygon fill="lightblue" stroke="black" points="835,-524 709,-524 709,-488 835,-488 835,-524"/>
<text text-anchor="middle" x="772" y="-502.3" font-family="Times,serif" font-size="14.00">Sucursal Central (1)</text>
</g>
<!-- 10&#45;&gt;1 -->
<g id="edge16" class="edge">
<title>10&#45;&gt;1</title>
<path fill="none" stroke="black" d="M971.57,-403.96C936.9,-394.08 889.99,-387.11 853,-405 821.71,-420.13 798.93,-454.1 785.86,-478.47"/>
<polygon fill="black" stroke="black" points="782.63,-477.1 781.17,-487.6 788.85,-480.3 782.63,-477.1"/>
<text text-anchor="middle" x="887" y="-408.8" font-family="Times,serif" font-size="14.00">t=160, c=65</text>
</g>
<!-- 9&#45;&gt;10 -->
<g id="edge18" class="edge">
<title>9&#45;&gt;10</title>
<path fill="none" stroke="black" d="M1206.83,-403.15C1200.81,-402.28 1194.82,-401.55 1189,-401 1158.91,-398.16 1151.06,-397.85 1121,-401 1117.13,-401.41 1113.19,-401.9 1109.22,-402.46"/>
<polygon fill="black" stroke="black" points="1108.66,-399.01 1099.31,-403.99 1109.72,-405.92 1108.66,-399.01"/>
<text text-anchor="middle" x="1155" y="-404.8" font-family="Times,serif" font-size="14.00">t=80, c=32</text>
</g>
<!-- 7 -->
<g id="node9" class="node">
<title>7</title>
<polygon fill="lightblue" stroke="black" points="1594.5,-512 1478.5,-512 1478.5,-476 1594.5,-476 1594.5,-512"/>
<text text-anchor="middle" x="1536.5" y="-490.3" font-family="Times,serif" font-size="14.00">Sucursal Peten (7)</text>
</g>
<!-- 9&#45;&gt;7 -->
<g id="edge19" class="edge">
<title>9&#45;&gt;7</title>
<path fill="none" stroke="black" d="M1301.04,-437.29C1318.17,-455.91 1347.63,-483.6 1380,-495 1407.78,-504.79 1440.13,-506.05 1468.1,-504.28"/>
<polygon fill="black" stroke="black" points="1468.49,-507.76 1478.19,-503.5 1467.95,-500.78 1468.49,-507.76"/>
<text text-anchor="middle" x="1417.5" y="-507.8" font-family="Times,serif" font-size="14.00">t=300, c=120</text>
</g>
<!-- 9&#45;&gt;3 -->
<g id="edge20" class="edge">
<title>9&#45;&gt;3</title>
<path fill="none" stroke="black" d="M1362.34,-413.88C1399.61,-410.18 1439.6,-404.01 1455,-394 1491.19,-370.49 1514.21,-324.38 1525.97,-294.67"/>
<polygon fill="black" stroke="black" points="1529.26,-295.87 1529.54,-285.28 1522.72,-293.39 1529.26,-295.87"/>
<text text-anchor="middle" x="1417.5" y="-414.8" font-family="Times,serif" font-size="14.00">t=240, c=95</text>
</g>
<!-- 8&#45;&gt;11 -->
<g id="edge21" class="edge">
<title>8&#45;&gt;11</title>
<path fill="none" stroke="black" d="M1043.25,-718.05C1062.31,-733.19 1091.73,-754.06 1121,-765 1148.55,-775.3 1180.33,-780.87 1208.44,-783.85"/>
<polygon fill="black" stroke="black" points="1208.32,-787.35 1218.61,-784.83 1209,-780.39 1208.32,-787.35"/>
<text text-anchor="middle" x="1155" y="-784.8" font-family="Times,serif" font-size="14.00">t=110, c=45</text>
</g>
<!-- 8&#45;&gt;4 -->
<g id="edge22" class="edge">
<title>8&#45;&gt;4</title>
<path fill="none" stroke="black" d="M1091.25,-696.63C1192.02,-691.72 1377.51,-682.69 1473.82,-678"/>
<polygon fill="black" stroke="black" points="1474.17,-681.49 1483.98,-677.51 1473.83,-674.5 1474.17,-681.49"/>
<text text-anchor="middle" x="1284.5" y="-693.8" font-family="Times,serif" font-size="14.00">t=80, c=30</text>
</g>
<!-- 8&#45;&gt;1 -->
<g id="edge23" class="edge">
<title>8&#45;&gt;1</title>
<path fill="none" stroke="black" d="M950.92,-702.52C918.39,-700.4 880.74,-692.83 853,-672 807.75,-638.03 786.84,-571.76 778.23,-534.04"/>
<polygon fill="black" stroke="black" points="781.64,-533.25 776.12,-524.21 774.8,-534.72 781.64,-533.25"/>
<text text-anchor="middle" x="887" y="-701.8" font-family="Times,serif" font-size="14.00">t=120, c=45</text>
</g>
<!-- 7&#45;&gt;9 -->
<g id="edge24" class="edge">
<title>7&#45;&gt;9</title>
<path fill="none" stroke="black" d="M1478.4,-476.87C1441.85,-465.9 1394.17,-451.6 1355.36,-439.96"/>
<polygon fill="black" stroke="black" points="1356.28,-436.58 1345.7,-437.06 1354.27,-443.29 1356.28,-436.58"/>
<text text-anchor="middle" x="1417.5" y="-472.8" font-family="Times,serif" font-size="14.00">t=300, c=120</text>
</g>
<!-- 6&#45;&gt;13 -->
<g id="edge25" class="edge">
<title>6&#45;&gt;13</title>
<path fill="none" stroke="black" d="M1724.3,-131.91C1676.71,-116.55 1603.19,-97 1537.5,-97 551.5,-97 551.5,-97 551.5,-97 479.61,-97 400.48,-125.57 351.76,-146.71"/>
<polygon fill="black" stroke="black" points="350.17,-143.59 342.43,-150.83 353,-149.99 350.17,-143.59"/>
<text text-anchor="middle" x="1021" y="-100.8" font-family="Times,serif" font-size="14.00">t=120, c=50</text>
</g>
<!-- 6&#45;&gt;3 -->
<g id="edge26" class="edge">
<title>6&#45;&gt;3</title>
<path fill="none" stroke="black" d="M1741.9,-168.13C1723.5,-178.07 1700.11,-190.48 1679,-201 1648.73,-216.09 1614.34,-232.15 1587.05,-244.65"/>
<polygon fill="black" stroke="black" points="1585.36,-241.58 1577.71,-248.92 1588.26,-247.94 1585.36,-241.58"/>
<text text-anchor="middle" x="1648.5" y="-231.8" font-family="Times,serif" font-size="14.00">t=60, c=25</text>
</g>
<!-- 5&#45;&gt;14 -->
<g id="edge27" class="edge">
<title>5&#45;&gt;14</title>
<path fill="none" stroke="black" d="M1951.77,-870.27C1887.67,-866.23 1785.28,-861.94 1697,-868 1668.56,-869.95 1637.47,-873.84 1610.36,-877.81"/>
<polygon fill="black" stroke="black" points="1609.54,-874.39 1600.17,-879.33 1610.58,-881.32 1609.54,-874.39"/>
<text text-anchor="middle" x="1776" y="-871.8" font-family="Times,serif" font-size="14.00">t=70, c=28</text>
</g>
<!-- 5&#45;&gt;12 -->
<g id="edge29" class="edge">
<title>5&#45;&gt;12</title>
<path fill="none" stroke="black" d="M1951.96,-879.6C1927.28,-881.83 1898.72,-884.93 1873,-889 1870.46,-889.4 1867.88,-889.83 1865.28,-890.28"/>
<polygon fill="black" stroke="black" points="1864.4,-886.88 1855.18,-892.11 1865.65,-893.77 1864.4,-886.88"/>
<text text-anchor="middle" x="1903.5" y="-892.8" font-family="Times,serif" font-size="14.00">t=60, c=25</text>
</g>
<!-- 5&#45;&gt;11 -->
<g id="edge28" class="edge">
<title>5&#45;&gt;11</title>
<path fill="none" stroke="black" d="M1960.44,-856.9C1929.82,-847.29 1890.63,-836.03 1855,-829 1680.21,-794.5 1470.19,-787.74 1360.53,-786.77"/>
<polygon fill="black" stroke="black" points="1360.26,-783.27 1350.23,-786.7 1360.21,-790.27 1360.26,-783.27"/>
<text text-anchor="middle" x="1648.5" y="-806.8" font-family="Times,serif" font-size="14.00">t=90, c=35</text>
</g>
<!-- 5&#45;&gt;1 -->
<g id="edge30" class="edge">
<title>5&#45;&gt;1</title>
<path fill="none" stroke="black" d="M1991.74,-856.86C1918.91,-800.01 1682.95,-624.99 1455,-556 1198.26,-478.3 1120.39,-534.25 853,-513 850.45,-512.8 847.85,-512.59 845.22,-512.37"/>
<polygon fill="black" stroke="black" points="845.27,-508.86 835.01,-511.52 844.69,-515.84 845.27,-508.86"/>
<text text-anchor="middle" x="1417.5" y="-559.8" font-family="Times,serif" font-size="14.00">t=150, c=60</text>
</g>
<!-- 4&#45;&gt;11 -->
<g id="edge31" class="edge">
<title>4&#45;&gt;11</title>
<path fill="none" stroke="black" d="M1483.6,-690.08C1474.1,-692.77 1464.26,-695.5 1455,-698 1421.8,-706.95 1410.64,-701.38 1380,-717 1370.72,-721.73 1370.23,-725.62 1362,-732 1348.53,-742.44 1333.35,-753.49 1320.09,-762.92"/>
<polygon fill="black" stroke="black" points="1317.83,-760.23 1311.69,-768.87 1321.87,-765.95 1317.83,-760.23"/>
<text text-anchor="middle" x="1417.5" y="-720.8" font-family="Times,serif" font-size="14.00">t=100, c=40</text>
</g>
<!-- 4&#45;&gt;8 -->
<g id="edge32" class="edge">
<title>4&#45;&gt;8</title>
<path fill="none" stroke="black" d="M1483.92,-670.87C1449.43,-668.32 1403.03,-665.3 1362,-664 1293.15,-661.82 1275.57,-657.39 1207,-664 1172.02,-667.37 1133.84,-674.25 1101.29,-681.1"/>
<polygon fill="black" stroke="black" points="1100.42,-677.7 1091.38,-683.22 1101.89,-684.55 1100.42,-677.7"/>
<text text-anchor="middle" x="1284.5" y="-667.8" font-family="Times,serif" font-size="14.00">t=80, c=30</text>
</g>
<!-- 4&#45;&gt;1 -->
<g id="edge33" class="edge">
<title>4&#45;&gt;1</title>
<path fill="none" stroke="black" d="M1521.7,-657C1507.2,-639.57 1482.67,-614.07 1455,-602 1208.99,-494.66 1108.83,-635.2 853,-554 836,-548.6 818.82,-538.97 804.76,-529.73"/>
<polygon fill="black" stroke="black" points="806.68,-526.81 796.44,-524.08 802.74,-532.6 806.68,-526.81"/>
<text text-anchor="middle" x="1155" y="-576.8" font-family="Times,serif" font-size="14.00">t=90, c=35</text>
</g>
<!-- 3&#45;&gt;15 -->
<g id="edge34" class="edge">
<title>3&#45;&gt;15</title>
<path fill="none" stroke="black" d="M1528.82,-248.65C1505.57,-188.33 1422.03,0 1285.5,0 303,0 303,0 303,0 230.82,0 152.44,-33.47 106.08,-57.11"/>
<polygon fill="black" stroke="black" points="104.22,-54.13 96.96,-61.85 107.45,-60.34 104.22,-54.13"/>
<text text-anchor="middle" x="772" y="-3.8" font-family="Times,serif" font-size="14.00">t=50, c=20</text>
</g>
<!-- 3&#45;&gt;13 -->
<g id="edge35" class="edge">
<title>3&#45;&gt;13</title>
<path fill="none" stroke="black" d="M1500.1,-248.99C1452.56,-226.51 1364.89,-191 1285.5,-191 551.5,-191 551.5,-191 551.5,-191 498.86,-191 440.15,-185.96 393.24,-180.71"/>
<polygon fill="black" stroke="black" points="393.44,-177.21 383.11,-179.55 392.64,-184.16 393.44,-177.21"/>
<text text-anchor="middle" x="887" y="-194.8" font-family="Times,serif" font-size="14.00">t=90, c=35</text>
</g>
<!-- 3&#45;&gt;9 -->
<g id="edge36" class="edge">
<title>3&#45;&gt;9</title>
<path fill="none" stroke="black" d="M1523.89,-285.29C1509.98,-305.65 1484.81,-338.06 1455,-356 1425.54,-373.73 1412.4,-363.47 1380,-375 1363.2,-380.98 1345.33,-388.88 1329.7,-396.33"/>
<polygon fill="black" stroke="black" points="1327.77,-393.38 1320.29,-400.89 1330.82,-399.68 1327.77,-393.38"/>
<text text-anchor="middle" x="1417.5" y="-378.8" font-family="Times,serif" font-size="14.00">t=240, c=95</text>
</g>
<!-- 3&#45;&gt;6 -->
<g id="edge37" class="edge">
<title>3&#45;&gt;6</title>
<path fill="none" stroke="black" d="M1549.42,-248.94C1563.41,-229.26 1588.5,-198.38 1618,-182 1641.4,-169.01 1669.39,-161.26 1695.22,-156.65"/>
<polygon fill="black" stroke="black" points="1696.08,-160.06 1705.37,-154.98 1694.94,-153.15 1696.08,-160.06"/>
<text text-anchor="middle" x="1648.5" y="-185.8" font-family="Times,serif" font-size="14.00">t=60, c=25</text>
</g>
<!-- 3&#45;&gt;2 -->
<g id="edge38" class="edge">
<title>3&#45;&gt;2</title>
<path fill="none" stroke="black" d="M1477.81,-284.55C1470.2,-286.34 1462.45,-287.9 1455,-289 1151.24,-333.88 783.81,-324.08 628.54,-317.04"/>
<polygon fill="black" stroke="black" points="628.33,-313.53 618.18,-316.56 628,-320.52 628.33,-313.53"/>
<text text-anchor="middle" x="1021" y="-326.8" font-family="Times,serif" font-size="14.00">t=190, c=75</text>
</g>
<!-- 3&#45;&gt;1 -->
<g id="edge39" class="edge">
<title>3&#45;&gt;1</title>
<path fill="none" stroke="black" d="M1518.9,-285.07C1503.82,-300.18 1480.16,-320.84 1455,-331 1330.38,-381.33 968.72,-320.65 853,-389 818.85,-409.17 795.98,-450.33 783.74,-478.05"/>
<polygon fill="black" stroke="black" points="780.37,-477.02 779.7,-487.59 786.82,-479.74 780.37,-477.02"/>
<text text-anchor="middle" x="1155" y="-356.8" font-family="Times,serif" font-size="14.00">t=180, c=70</text>
</g>
<!-- 2&#45;&gt;13 -->
<g id="edge40" class="edge">
<title>2&#45;&gt;13</title>
<path fill="none" stroke="black" d="M486.92,-311.85C458.93,-308.91 426.75,-302.07 401,-287 363.93,-265.31 335.22,-223.56 319.21,-195.99"/>
<polygon fill="black" stroke="black" points="322.23,-194.22 314.27,-187.23 316.13,-197.66 322.23,-194.22"/>
<text text-anchor="middle" x="435" y="-312.8" font-family="Times,serif" font-size="14.00">t=200, c=80</text>
</g>
<!-- 2&#45;&gt;3 -->
<g id="edge41" class="edge">
<title>2&#45;&gt;3</title>
<path fill="none" stroke="black" d="M618.18,-295.67C661.17,-285.65 719.06,-275 771,-275 771,-275 771,-275 1285.5,-275 1347.25,-275 1417.54,-272.53 1467.83,-270.34"/>
<polygon fill="black" stroke="black" points="1468.09,-273.83 1477.92,-269.89 1467.78,-266.84 1468.09,-273.83"/>
<text text-anchor="middle" x="1021" y="-278.8" font-family="Times,serif" font-size="14.00">t=190, c=75</text>
</g>
<!-- 2&#45;&gt;1 -->
<g id="edge42" class="edge">
<title>2&#45;&gt;1</title>
<path fill="none" stroke="black" d="M562.55,-331.07C575.85,-356.22 602.75,-402.06 636,-432 659.81,-453.44 690.92,-471.02 717.27,-483.66"/>
<polygon fill="black" stroke="black" points="715.84,-486.86 726.38,-487.93 718.81,-480.52 715.84,-486.86"/>
<text text-anchor="middle" x="663.5" y="-471.8" font-family="Times,serif" font-size="14.00">t=15, c=5</text>
</g>
<!-- 1&#45;&gt;10 -->
<g id="edge43" class="edge">
<title>1&#45;&gt;10</title>
<path fill="none" stroke="black" d="M790.21,-487.8C805.27,-473.1 828.54,-453.23 853,-443 876.56,-433.15 903.5,-427.57 928.76,-424.51"/>
<polygon fill="black" stroke="black" points="929.16,-427.98 938.72,-423.41 928.4,-421.03 929.16,-427.98"/>
<text text-anchor="middle" x="887" y="-446.8" font-family="Times,serif" font-size="14.00">t=160, c=65</text>
</g>
<!-- 1&#45;&gt;8 -->
<g id="edge44" class="edge">
<title>1&#45;&gt;8</title>
<path fill="none" stroke="black" d="M780.16,-524.35C791.58,-551.31 816.42,-601.5 853,-630 878.17,-649.61 891.43,-641.03 921,-653 939,-660.29 958.39,-669.24 975.2,-677.37"/>
<polygon fill="black" stroke="black" points="973.72,-680.54 984.25,-681.78 976.79,-674.25 973.72,-680.54"/>
<text text-anchor="middle" x="887" y="-656.8" font-family="Times,serif" font-size="14.00">t=120, c=45</text>
</g>
<!-- 1&#45;&gt;5 -->
<g id="edge45" class="edge">
<title>1&#45;&gt;5</title>
<path fill="none" stroke="black" d="M773.32,-524.13C775.97,-613.95 800.11,-1007 1020,-1007 1020,-1007 1020,-1007 1777,-1007 1850.37,-1007 1871.58,-994.55 1934,-956 1957.55,-941.46 1979.36,-918.68 1994.32,-900.98"/>
<polygon fill="black" stroke="black" points="1997.03,-903.2 2000.69,-893.26 1991.63,-898.74 1997.03,-903.2"/>
<text text-anchor="middle" x="1417.5" y="-1010.8" font-family="Times,serif" font-size="14.00">t=150, c=60</text>
</g>
<!-- 1&#45;&gt;4 -->
<g id="edge46" class="edge">
<title>1&#45;&gt;4</title>
<path fill="none" stroke="black" d="M788.19,-524.02C803,-540.31 827.02,-563.59 853,-576 888.01,-592.73 900.65,-585.09 939,-591 1167.68,-626.22 1226.53,-623.46 1455,-660 1461.08,-660.97 1467.41,-662.05 1473.72,-663.16"/>
<polygon fill="black" stroke="black" points="1473.14,-666.61 1483.6,-664.93 1474.38,-659.72 1473.14,-666.61"/>
<text text-anchor="middle" x="1155" y="-626.8" font-family="Times,serif" font-size="14.00">t=90, c=35</text>
</g>
<!-- 1&#45;&gt;3 -->
<g id="edge47" class="edge">
<title>1&#45;&gt;3</title>
<path fill="none" stroke="black" d="M835.26,-502.64C994.18,-493.55 1405.83,-466.7 1455,-430 1499.43,-396.84 1520.79,-332.44 1529.82,-295.29"/>
<polygon fill="black" stroke="black" points="1533.32,-295.67 1532.14,-285.14 1526.5,-294.1 1533.32,-295.67"/>
<text text-anchor="middle" x="1155" y="-485.8" font-family="Times,serif" font-size="14.00">t=180, c=70</text>
</g>
<!-- 1&#45;&gt;2 -->
<g id="edge48" class="edge">
<title>1&#45;&gt;2</title>
<path fill="none" stroke="black" d="M757.38,-487.77C742.29,-468.18 716.68,-436.67 691,-413 659.53,-384 619.59,-355.77 590.88,-336.74"/>
<polygon fill="black" stroke="black" points="592.63,-333.7 582.35,-331.14 588.79,-339.55 592.63,-333.7"/>
<text text-anchor="middle" x="663.5" y="-416.8" font-family="Times,serif" font-size="14.00">t=15, c=5</text>
</g>
</g>
</svg>
